<?xml version="1.0" standalone="no"?>
<!DOCTYPE svg PUBLIC "-//W3C//DTD SVG 20010904//EN"
 "http://www.w3.org/TR/2001/REC-SVG-20010904/DTD/svg10.dtd">
<svg version="1.0" xmlns="http://www.w3.org/2000/svg"
 width="3400.000000pt" height="1186.000000pt" viewBox="0 0 3400.000000 1186.000000"
 preserveAspectRatio="xMidYMid meet">

<g transform="translate(0.000000,1186.000000) scale(0.100000,-0.100000)"
fill="#000000" stroke="none">
<path d="M5218 9668 c-256 -284 -320 -357 -316 -367 2 -5 107 -122 233 -261
127 -139 235 -260 240 -267 9 -12 62 41 259 257 218 239 246 273 234 288 -52
64 -475 532 -482 532 -1 0 -77 -82 -168 -182z"/>
<path d="M4402 8713 c-66 -82 -153 -190 -194 -242 l-74 -94 249 -246 c137
-135 252 -246 256 -246 4 0 69 74 143 165 75 91 161 194 192 230 31 36 56 68
56 72 0 11 -491 508 -501 508 -4 0 -62 -66 -127 -147z"/>
<path d="M6118 8733 c-72 -71 -184 -185 -250 -255 l-120 -128 197 -235 196
-236 255 247 c140 136 254 249 254 253 0 12 -382 481 -392 481 -5 0 -68 -57
-140 -127z"/>
<path d="M11945 7178 c-208 -513 -537 -1327 -732 -1808 -367 -907 -441 -1076
-518 -1172 -72 -90 -180 -152 -317 -182 -27 -6 -28 -8 -28 -76 l0 -70 620 0
620 0 0 69 0 70 -42 5 c-249 29 -292 40 -364 89 -61 41 -94 101 -94 172 0 84
52 243 220 673 l51 132 697 0 697 0 87 -208 c201 -480 240 -679 148 -771 -39
-38 -93 -50 -397 -87 l-43 -5 0 -70 0 -69 990 0 990 0 0 69 0 68 -62 7 c-87 8
-176 54 -231 117 -116 133 -141 188 -1034 2293 -382 902 -700 1650 -706 1663
-9 21 -16 23 -92 23 l-82 0 -378 -932z m415 -1131 c166 -400 300 -730 298
-733 -3 -2 -275 -3 -606 -2 l-601 3 292 753 c260 673 292 751 303 730 6 -13
148 -351 314 -751z"/>
<path d="M29085 6383 c-804 -1989 -813 -2011 -884 -2120 -93 -145 -184 -207
-363 -247 -27 -6 -28 -8 -28 -76 l0 -70 625 0 625 0 0 69 0 70 -57 5 c-139 14
-260 38 -308 60 -93 42 -145 117 -145 207 0 68 58 244 200 612 l73 187 696 0
697 0 82 -193 c180 -427 229 -614 188 -730 -32 -90 -50 -95 -433 -143 l-43 -5
0 -70 0 -69 995 0 995 0 0 69 0 68 -66 6 c-161 15 -260 107 -386 362 -78 157
-166 361 -889 2065 l-706 1665 -84 3 -84 3 -700 -1728z m725 -308 c167 -401
305 -738 308 -747 4 -17 -29 -18 -597 -18 -462 0 -601 3 -601 12 0 23 575
1497 581 1490 4 -4 143 -335 309 -737z"/>
<path d="M14860 7951 l0 -69 38 -7 c21 -3 63 -20 92 -37 63 -36 214 -184 323
-316 l77 -93 0 -1477 c0 -963 -4 -1506 -10 -1560 -29 -225 -113 -308 -362
-352 -68 -12 -133 -23 -145 -26 -21 -4 -23 -10 -23 -74 l0 -70 690 0 690 0 0
70 0 69 -37 6 c-288 46 -405 103 -476 233 -64 118 -61 42 -64 1515 -2 882 0
1338 6 1335 6 -1 627 -754 1381 -1673 l1371 -1670 84 -3 85 -3 0 1884 c0 1318
3 1901 11 1942 6 33 19 75 29 95 46 88 166 160 312 187 46 8 93 17 106 19 20
4 22 10 22 74 l0 70 -660 0 -660 0 0 -70 c0 -38 3 -70 8 -70 4 0 50 -7 102
-15 149 -22 249 -62 327 -130 53 -45 109 -157 123 -245 12 -81 14 -2103 1
-2098 -5 2 -488 594 -1075 1316 l-1067 1312 -649 0 -650 0 0 -69z"/>
<path d="M19280 7951 l0 -70 48 -6 c259 -32 374 -91 436 -224 l21 -46 3 -1630
c2 -1604 2 -1631 -18 -1695 -49 -162 -162 -240 -382 -263 l-108 -11 0 -68 0
-68 1039 0 c1060 0 1137 2 1366 40 250 42 429 98 645 201 629 302 986 815
1092 1569 8 58 13 184 12 325 0 188 -4 253 -22 355 -76 447 -219 747 -486
1027 -261 273 -647 481 -1053 567 -289 61 -248 59 -1470 63 l-1123 4 0 -70z
m2103 -146 c200 -35 342 -109 487 -254 275 -276 430 -673 484 -1241 25 -258
29 -395 17 -614 -21 -388 -68 -649 -160 -887 -185 -481 -481 -699 -996 -734
-193 -13 -325 22 -375 101 -57 90 -55 26 -55 1824 l0 1655 21 40 c27 51 91 91
175 109 86 19 296 20 402 1z"/>
<path d="M23740 7951 l0 -70 58 -6 c238 -25 294 -42 371 -111 60 -54 96 -125
111 -214 13 -87 14 -3118 0 -3213 -31 -216 -119 -273 -492 -322 l-48 -6 0 -70
0 -69 1802 2 1803 3 106 555 c59 305 114 590 122 633 l14 77 -81 0 -81 -1 -77
-157 c-121 -248 -251 -424 -417 -566 -301 -257 -636 -366 -1126 -366 -314 0
-440 43 -499 170 -21 44 -21 57 -24 858 l-3 812 83 0 c177 0 361 -36 483 -93
236 -112 381 -368 427 -752 l12 -105 78 0 78 0 0 1035 0 1035 -78 0 -79 0 -12
-82 c-40 -273 -122 -474 -244 -605 -126 -135 -287 -203 -519 -218 -46 -3 -116
-8 -155 -11 l-73 -5 0 764 c0 838 0 835 59 895 51 50 120 64 361 69 225 6 425
-6 590 -33 267 -45 481 -161 608 -330 116 -155 174 -304 247 -641 5 -21 11
-23 75 -23 l70 0 0 615 0 615 -1775 0 -1775 0 0 -69z"/>
<path d="M5187 7744 l-198 -224 18 -24 c34 -44 377 -416 383 -416 3 0 78 80
166 178 87 97 176 196 197 218 l37 42 -178 203 c-99 112 -190 214 -203 226
l-24 22 -198 -225z"/>
</g>
</svg>
